<?xml version="1.0" standalone="no"?>
<!DOCTYPE svg PUBLIC "-//W3C//DTD SVG 20010904//EN"
 "http://www.w3.org/TR/2001/REC-SVG-20010904/DTD/svg10.dtd">
<svg version="1.0" xmlns="http://www.w3.org/2000/svg"
 width="1.000000pt" height="1.000000pt" viewBox="0 0 1.000000 1.000000"
 preserveAspectRatio="xMidYMid meet">
<metadata>
Created by potrace 1.16, written by Peter Selinger 2001-2019
</metadata>
<g transform="translate(0.000000,1.000000) scale(0.000444,-0.000444)"
fill="#000000" stroke="none">
<path d="M1688 1723 c32 -4 33 -6 26 -36 -11 -52 -20 -71 -48 -96 -31 -29 -33
-49 -6 -59 20 -7 19 -10 -15 -49 -19 -23 -35 -52 -35 -65 0 -43 -41 -172 -71
-225 -41 -71 -126 -147 -197 -174 -71 -28 -239 -38 -310 -19 -74 20 -162 71
-215 124 -88 88 -144 247 -132 372 l4 49 -10 -53 c-23 -113 34 -272 131 -372
93 -96 201 -140 347 -140 249 0 412 143 457 401 8 50 19 74 44 103 37 42 40
56 12 56 -11 0 -20 7 -20 15 0 8 4 15 10 15 17 0 58 74 65 118 l7 42 -39 -2
c-37 -1 -38 -1 -5 -5z"/>
<path d="M383 769 c5 -20 -18 -106 -34 -123 -20 -22 -8 -36 27 -36 34 0 35 1
29 30 -6 27 -4 30 19 30 23 0 25 -3 19 -30 -5 -28 -4 -30 25 -30 38 0 47 13
28 42 -8 13 -22 49 -32 81 -17 55 -19 57 -52 57 -30 0 -34 -3 -29 -21z"/>
<path d="M570 776 c0 -8 5 -18 10 -21 6 -3 10 -28 10 -55 0 -27 -4 -52 -10
-55 -24 -15 -9 -35 24 -35 38 0 55 15 37 33 -17 17 -13 27 12 27 49 0 76 70
41 104 -21 22 -124 23 -124 2z"/>
<path d="M753 768 c-30 -33 -36 -62 -19 -101 26 -64 88 -76 138 -27 27 27 30
36 25 73 -7 51 -36 77 -86 77 -26 0 -44 -7 -58 -22z"/>
<path d="M1112 767 c-22 -23 -29 -76 -16 -112 8 -19 55 -45 84 -45 36 0 80 53
80 95 0 76 -97 116 -148 62z"/>
<path d="M1440 775 c0 -8 5 -15 10 -15 14 0 13 -103 -1 -117 -21 -21 2 -33 62
-33 59 0 59 0 59 30 0 20 -5 30 -15 30 -8 0 -15 -4 -15 -10 0 -5 -9 -10 -21
-10 -28 0 -21 34 9 38 31 5 28 32 -3 32 -15 0 -25 6 -25 14 0 21 20 30 33 17
19 -19 37 -12 37 14 0 24 -2 25 -65 25 -51 0 -65 -3 -65 -15z"/>
<path d="M1600 775 c0 -8 5 -15 10 -15 6 0 10 -24 10 -54 0 -30 -4 -58 -10
-61 -24 -15 -9 -35 24 -35 39 0 53 14 36 35 -7 8 -10 20 -7 27 2 8 14 -3 27
-24 24 -42 60 -52 60 -18 0 11 -4 20 -9 20 -15 0 -24 41 -12 53 16 16 13 53
-5 71 -21 22 -124 23 -124 1z"/>
<path d="M1905 748 c0 -24 -8 -58 -18 -77 -24 -49 -22 -61 12 -61 35 0 48 15
31 35 -10 12 -9 16 4 21 9 3 23 3 32 0 13 -5 14 -9 4 -21 -6 -8 -9 -19 -5 -25
7 -11 65 -14 65 -2 0 4 -13 43 -29 87 -27 77 -30 80 -62 83 -34 3 -34 3 -34
-40z"/>
</g>
</svg>
